<?xml version="1.0" encoding="utf-8"?>
<!-- Generator: Adobe Illustrator 25.4.1, SVG Export Plug-In . SVG Version: 6.00 Build 0)  -->
<svg version="1.1" id="Layer_1" xmlns="http://www.w3.org/2000/svg" xmlns:xlink="http://www.w3.org/1999/xlink" x="0px" y="0px"
	 viewBox="0 0 624.7 115.2" style="enable-background:new 0 0 624.7 115.2;" xml:space="preserve">
<style type="text/css">
	.st0{fill:#262626;}
	.st1{opacity:0.5;fill:url(#SVGID_1_);enable-background:new    ;}
	.st2{fill:url(#SVGID_00000134235384366698845810000003030600918990205605_);}
	.st3{fill:url(#SVGID_00000078745791675394131870000016613326694051354252_);}
	.st4{fill:url(#SVGID_00000076588525362469301540000003163921421566025869_);}
	.st5{fill:url(#SVGID_00000009562494463146165290000007355394767247040934_);}
	.st6{fill:url(#SVGID_00000047773694519979814180000004180566337473801644_);}
	.st7{fill:url(#SVGID_00000036954832621042819420000018361422903345169041_);}
	.st8{fill:url(#SVGID_00000021801383819976930960000010065086897090701988_);}
	.st9{fill:url(#SVGID_00000042725380189474824850000011470660864283731862_);}
	.st10{opacity:0.4;fill:url(#SVGID_00000053540229618735412440000017126065688466271654_);enable-background:new    ;}
	.st11{fill:url(#SVGID_00000057836992440690433190000007552578398461222074_);}
	.st12{opacity:0.75;fill:url(#SVGID_00000141448989128557023080000016979329424400900740_);enable-background:new    ;}
</style>
<path class="st0" d="M153.1,44.3c0.6-2.8,2.1-5.3,4.4-7.1c2.4-2,5.9-3.1,10.2-3.1c4.5-0.1,8.9,1.2,12.6,3.6c3.6,2.4,6.5,5.8,8.4,9.8
	c2,4.3,3.1,9.1,3,13.8v1.6c0.1,4.8-1,9.5-3,13.8c-1.9,4-4.8,7.3-8.4,9.8c-3.7,2.4-8.2,3.7-12.6,3.6c-4.4,0-7.8-1-10.3-3.1
	c-2.3-1.7-3.8-4.3-4.4-7.1h-3.8v35.2h-8.5V37.8c0-1.3,1-2.3,2.3-2.3h6.2v8.7H153.1z M153.7,77.4c2.9,3.5,7,5.3,12.4,5.3
	c5.3,0,9.4-1.8,12.4-5.3c3-3.5,4.6-8.3,4.6-14.4v-1.6c0-6.1-1.5-10.9-4.6-14.5c-3.1-3.6-7.6-5.6-12.4-5.4c-5.2,0-9.3,1.8-12.3,5.3
	c-3,3.6-4.5,8.4-4.5,14.6v1.6C149.3,69.1,150.8,73.9,153.7,77.4L153.7,77.4z"/>
<path class="st0" d="M202.3,47.3c1.8-4,4.8-7.4,8.6-9.7c4.2-2.5,9-3.7,13.9-3.5c4.9-0.2,9.8,1.1,14.1,3.5c3.8,2.3,6.8,5.7,8.6,9.7
	c2,4.4,2.9,9.1,2.9,13.9v1.6c0.1,4.8-0.9,9.6-2.9,14c-1.8,4-4.9,7.4-8.6,9.7c-4.3,2.5-9.1,3.7-14.1,3.6c-4.9,0.2-9.7-1.1-13.9-3.6
	c-3.8-2.3-6.8-5.7-8.6-9.8c-2-4.4-2.9-9.2-2.9-14v-1.5C199.4,56.5,200.4,51.7,202.3,47.3z M212.5,77.5c3,3.6,7.6,5.7,12.3,5.5
	c5.3,0,9.5-1.8,12.5-5.5s4.5-8.5,4.6-14.7v-1.6c0-6.2-1.5-11-4.6-14.6c-3-3.6-7.2-5.4-12.5-5.4c-5.2,0-9.3,1.8-12.3,5.4
	c-3,3.6-4.5,8.5-4.5,14.5v1.6C208,69,209.5,73.9,212.5,77.5L212.5,77.5z"/>
<path class="st0" d="M318.2,81.8c0.2,1.2,0.3,2.4,0.3,3.6h3.8c0-1.2,0.1-2.4,0.3-3.6c0.2-0.8,0.7-2.8,1.6-6l11.9-40.3h9.5
	l-24.5,79.6l-9.5,0.1l8.9-26.6h-6c-1.7,0-3.3-1.1-3.8-2.8l-16.2-50.3h9.5l12.5,40.2C317.5,79,318.1,81,318.2,81.8z"/>
<path class="st0" d="M294.2,80.8l-12.5,1.4c-2.2,0.1-3-1.1-3-3V13.1c0-1.3-1.1-2.4-2.4-2.4l0,0h-2.2l0,0h-16.2v7.4h12.4v61.1
	c0,1.9-0.8,3.1-3,3l-12.5-1.4v7.8h39.4L294.2,80.8z"/>
<linearGradient id="SVGID_1_" gradientUnits="userSpaceOnUse" x1="-2855.9919" y1="1659.674" x2="-2855.9919" y2="1724.4678" gradientTransform="matrix(0.9338 0.3577 0.3577 -0.9338 2156.7961 2642.8965)">
	<stop  offset="0" style="stop-color:#D0E6FD"/>
	<stop  offset="6.000000e-02" style="stop-color:#D2E0F4"/>
	<stop  offset="0.15" style="stop-color:#D8CEDA"/>
	<stop  offset="0.27" style="stop-color:#E1B2B1"/>
	<stop  offset="0.42" style="stop-color:#ED8B77"/>
	<stop  offset="0.57" style="stop-color:#FC5C32"/>
	<stop  offset="0.86" style="stop-color:#FC351B"/>
	<stop  offset="0.99" style="stop-color:#EE2017"/>
</linearGradient>
<polygon class="st1" points="74.9,47.9 110,81.6 80.1,0.7 "/>
<linearGradient id="SVGID_00000013912329725230429140000003100304232391507882_" gradientUnits="userSpaceOnUse" x1="75.1" y1="76.615" x2="110.43" y2="76.615" gradientTransform="matrix(1 0 0 -1 0 118)">
	<stop  offset="0" style="stop-color:#FFBA84"/>
	<stop  offset="0.1" style="stop-color:#FFB17C"/>
	<stop  offset="0.27" style="stop-color:#FE9766"/>
	<stop  offset="0.49" style="stop-color:#FD6E42"/>
	<stop  offset="0.57" style="stop-color:#FC5C32"/>
	<stop  offset="0.86" style="stop-color:#FC351B"/>
	<stop  offset="0.99" style="stop-color:#EE2017"/>
</linearGradient>
<polygon style="fill:url(#SVGID_00000013912329725230429140000003100304232391507882_);" points="110.4,82.8 80.4,0 75.1,47.8 "/>
<linearGradient id="SVGID_00000013183558913081793900000012655320099843659653_" gradientUnits="userSpaceOnUse" x1="100.2825" y1="25.0825" x2="65.1275" y2="60.2375" gradientTransform="matrix(1 0 0 -1 0 118)">
	<stop  offset="0" style="stop-color:#FFBA84"/>
	<stop  offset="0.1" style="stop-color:#FFB17C"/>
	<stop  offset="0.27" style="stop-color:#FE9766"/>
	<stop  offset="0.49" style="stop-color:#FD6E42"/>
	<stop  offset="0.57" style="stop-color:#FC5C32"/>
	<stop  offset="0.86" style="stop-color:#FC351B"/>
	<stop  offset="0.99" style="stop-color:#EE2017"/>
</linearGradient>
<polygon style="fill:url(#SVGID_00000013183558913081793900000012655320099843659653_);" points="59.3,72.2 110.4,82.8 75.1,47.8 
	"/>
<linearGradient id="SVGID_00000042717931095331559190000001592334950825009313_" gradientUnits="userSpaceOnUse" x1="66.835" y1="70.21" x2="66.835" y2="118" gradientTransform="matrix(1 0 0 -1 0 118)">
	<stop  offset="0" style="stop-color:#FFBA84"/>
	<stop  offset="0.1" style="stop-color:#FFB17C"/>
	<stop  offset="0.27" style="stop-color:#FE9766"/>
	<stop  offset="0.49" style="stop-color:#FD6E42"/>
	<stop  offset="0.57" style="stop-color:#FC5C32"/>
	<stop  offset="0.86" style="stop-color:#FC351B"/>
	<stop  offset="0.99" style="stop-color:#EE2017"/>
</linearGradient>
<polygon style="fill:url(#SVGID_00000042717931095331559190000001592334950825009313_);" points="75.1,47.8 80.4,0 53.3,43.5 "/>
<linearGradient id="SVGID_00000088833517221547712610000013284066518476900254_" gradientUnits="userSpaceOnUse" x1="0" y1="44.06" x2="38.16" y2="44.06" gradientTransform="matrix(1 0 0 -1 0 118)">
	<stop  offset="0" style="stop-color:#FFBA84"/>
	<stop  offset="0.1" style="stop-color:#FFB17C"/>
	<stop  offset="0.27" style="stop-color:#FE9766"/>
	<stop  offset="0.49" style="stop-color:#FD6E42"/>
	<stop  offset="0.57" style="stop-color:#FC5C32"/>
	<stop  offset="0.86" style="stop-color:#FC351B"/>
	<stop  offset="0.99" style="stop-color:#EE2017"/>
</linearGradient>
<polygon style="fill:url(#SVGID_00000088833517221547712610000013284066518476900254_);" points="0,33.2 31.5,114.7 38.2,67.8 "/>
<linearGradient id="SVGID_00000026159635263998784910000013328690387886374804_" gradientUnits="userSpaceOnUse" x1="40.195" y1="74.46" x2="40.195" y2="118" gradientTransform="matrix(1 0 0 -1 0 118)">
	<stop  offset="0" style="stop-color:#FFBA84"/>
	<stop  offset="0.1" style="stop-color:#FFB17C"/>
	<stop  offset="0.27" style="stop-color:#FE9766"/>
	<stop  offset="0.49" style="stop-color:#FD6E42"/>
	<stop  offset="0.57" style="stop-color:#FC5C32"/>
	<stop  offset="0.86" style="stop-color:#FC351B"/>
	<stop  offset="0.99" style="stop-color:#EE2017"/>
</linearGradient>
<polygon style="fill:url(#SVGID_00000026159635263998784910000013328690387886374804_);" points="80.4,0 0,33.2 53.3,43.5 "/>
<linearGradient id="SVGID_00000042711977258528624670000002985485027486985898_" gradientUnits="userSpaceOnUse" x1="39.5723" y1="-4.7609" x2="94.9902" y2="50.667" gradientTransform="matrix(1 0 0 -1 0 118)">
	<stop  offset="0" style="stop-color:#FFBA84"/>
	<stop  offset="0.1" style="stop-color:#FFB17C"/>
	<stop  offset="0.27" style="stop-color:#FE9766"/>
	<stop  offset="0.49" style="stop-color:#FD6E42"/>
	<stop  offset="0.57" style="stop-color:#FC5C32"/>
	<stop  offset="0.86" style="stop-color:#FC351B"/>
	<stop  offset="0.99" style="stop-color:#EE2017"/>
</linearGradient>
<polygon style="fill:url(#SVGID_00000042711977258528624670000002985485027486985898_);" points="59.3,72.2 31.5,114.7 110.4,82.8 
	"/>
<linearGradient id="SVGID_00000119090334899364388210000016662901338090962352_" gradientUnits="userSpaceOnUse" x1="45.395" y1="3.28" x2="45.395" y2="50.18" gradientTransform="matrix(1 0 0 -1 0 118)">
	<stop  offset="0" style="stop-color:#FFBA84"/>
	<stop  offset="0.1" style="stop-color:#FFB17C"/>
	<stop  offset="0.27" style="stop-color:#FE9766"/>
	<stop  offset="0.49" style="stop-color:#FD6E42"/>
	<stop  offset="0.57" style="stop-color:#FC5C32"/>
	<stop  offset="0.86" style="stop-color:#FC351B"/>
	<stop  offset="0.99" style="stop-color:#EE2017"/>
</linearGradient>
<polygon style="fill:url(#SVGID_00000119090334899364388210000016662901338090962352_);" points="38.2,67.8 31.5,114.7 59.3,72.2 
	"/>
<linearGradient id="SVGID_00000008114252393352741010000003387289412374049470_" gradientUnits="userSpaceOnUse" x1="37.55" y1="45.81" x2="37.55" y2="84.84" gradientTransform="matrix(1 0 0 -1 0 118)">
	<stop  offset="0" style="stop-color:#FFBA84"/>
	<stop  offset="0.1" style="stop-color:#FFB17C"/>
	<stop  offset="0.27" style="stop-color:#FE9766"/>
	<stop  offset="0.49" style="stop-color:#FD6E42"/>
	<stop  offset="0.57" style="stop-color:#FC5C32"/>
	<stop  offset="0.86" style="stop-color:#FC351B"/>
	<stop  offset="0.99" style="stop-color:#EE2017"/>
</linearGradient>
<polygon style="fill:url(#SVGID_00000008114252393352741010000003387289412374049470_);" points="53.3,43.5 0,33.2 38.2,67.8 
	59.3,72.2 75.1,47.8 "/>
<linearGradient id="SVGID_00000147923446921186902950000002458149360905495202_" gradientUnits="userSpaceOnUse" x1="-2909.9446" y1="1665.5305" x2="-2909.9446" y2="1725.2532" gradientTransform="matrix(0.9338 0.3577 0.3577 -0.9338 2156.7961 2642.8965)">
	<stop  offset="0" style="stop-color:#D0E6FD"/>
	<stop  offset="6.000000e-02" style="stop-color:#D2E0F4"/>
	<stop  offset="0.15" style="stop-color:#D8CEDA"/>
	<stop  offset="0.27" style="stop-color:#E1B2B1"/>
	<stop  offset="0.42" style="stop-color:#ED8B77"/>
	<stop  offset="0.57" style="stop-color:#FC5C32"/>
	<stop  offset="0.86" style="stop-color:#FC351B"/>
	<stop  offset="0.99" style="stop-color:#EE2017"/>
</linearGradient>
<polygon style="opacity:0.4;fill:url(#SVGID_00000147923446921186902950000002458149360905495202_);enable-background:new    ;" points="
	75.1,47.8 80.4,0 0,33.2 "/>
<linearGradient id="SVGID_00000098928279877640528900000015149383507896612795_" gradientUnits="userSpaceOnUse" x1="56.635" y1="45.85" x2="56.635" y2="74.46" gradientTransform="matrix(1 0 0 -1 0 118)">
	<stop  offset="0" style="stop-color:#FFBA84"/>
	<stop  offset="0.1" style="stop-color:#FFB17C"/>
	<stop  offset="0.27" style="stop-color:#FE9766"/>
	<stop  offset="0.49" style="stop-color:#FD6E42"/>
	<stop  offset="0.57" style="stop-color:#FC5C32"/>
	<stop  offset="0.86" style="stop-color:#FC351B"/>
	<stop  offset="0.99" style="stop-color:#EE2017"/>
</linearGradient>
<polygon style="fill:url(#SVGID_00000098928279877640528900000015149383507896612795_);" points="53.3,43.5 38.2,67.8 59.2,72.2 
	75.1,47.8 "/>
<linearGradient id="SVGID_00000017487436037267692880000000611480190689937032_" gradientUnits="userSpaceOnUse" x1="75.1" y1="44.06" x2="9.094947e-13" y2="44.06" gradientTransform="matrix(1 0 0 -1 0 118)">
	<stop  offset="0" style="stop-color:#D9FFD0"/>
	<stop  offset="7.000000e-02" style="stop-color:#DBF6C7"/>
	<stop  offset="0.18" style="stop-color:#E0DCAE"/>
	<stop  offset="0.32" style="stop-color:#E9B386"/>
	<stop  offset="0.49" style="stop-color:#F67A4F"/>
	<stop  offset="0.57" style="stop-color:#FC5C32"/>
	<stop  offset="0.86" style="stop-color:#FC351B"/>
	<stop  offset="0.99" style="stop-color:#EE2017"/>
</linearGradient>
<polygon style="opacity:0.75;fill:url(#SVGID_00000017487436037267692880000000611480190689937032_);enable-background:new    ;" points="
	0,33.2 31.5,114.7 75.1,47.8 "/>
</svg>
