<?xml version="1.0" encoding="UTF-8"?>
<svg width="100pt" height="100pt" version="1.1" viewBox="0 0 100 100" xmlns="http://www.w3.org/2000/svg">
 <g>
  <path d="m70.945 32.812c-0.42578 1.4336-1.0039 2.8242-1.7188 4.1406l1.7617 1.7656 0.003907-0.003906c0.60937 0.60938 0.60937 1.6016 0 2.2109l-6.6289 6.6289h-0.003906c-0.60938 0.60937-1.5977 0.60937-2.207 0l-1.7656-1.7656c-1.3164 0.71484-2.7031 1.293-4.1367 1.7188v2.4922c0 0.41406-0.16406 0.8125-0.45703 1.1055s-0.69141 0.45703-1.1055 0.45703h-9.375c-0.86328 0-1.5625-0.69922-1.5625-1.5625v-2.4922c-1.4375-0.42578-2.8242-1.0039-4.1406-1.7188l-1.7656 1.7656h0.003906c-0.60938 0.60937-1.6016 0.60937-2.2109 0l-6.6289-6.6289v-0.003906c-0.60937-0.60938-0.60937-1.5977 0-2.207l1.7617-1.7656c-0.71484-1.3164-1.2891-2.7031-1.7148-4.1367h-11.867v10.203l27.562 22.969c0.35938 0.30078 0.5625 0.73828 0.5625 1.2031v25.914l9.375-9.375v-16.539c0-0.46484 0.20312-0.90234 0.5625-1.2031l27.562-22.969v-10.203z"/>
  <path d="m39.195 32.68c1.4141-2.3438 3.5508-4.1641 6.0859-5.1875-1.6055-1.8516-1.9844-4.4648-0.96875-6.6914 1.0156-2.2305 3.2383-3.6602 5.6875-3.6602s4.6719 1.4297 5.6875 3.6602c1.0156 2.2266 0.63672 4.8398-0.96875 6.6914 2.5352 1.0234 4.6719 2.8438 6.0859 5.1875l0.042968 0.070312c2.2148-3.8672 2.2031-8.625-0.03125-12.48-2.2383-3.8594-6.3594-6.2305-10.816-6.2305s-8.5781 2.3711-10.816 6.2305c-2.2344 3.8555-2.2461 8.6133-0.03125 12.48z"/>
  <path d="m50 29.688c-3.3242 0.011719-6.4062 1.7539-8.125 4.6016l-0.67969 1.1367v-0.003906c4.8672 4.8516 12.742 4.8516 17.609 0l-0.67969-1.1367v0.003906c-1.7188-2.8477-4.8008-4.5898-8.125-4.6016z"/>
  <path d="m31.773 30.891c0.46094 1.9414 1.2305 3.7969 2.2812 5.4961 0.37891 0.61719 0.28516 1.4141-0.22656 1.9258l-1.5039 1.5078 4.418 4.418 1.5078-1.5078v0.003906c0.51172-0.51562 1.3086-0.60938 1.9258-0.22656 1.6953 1.0508 3.5508 1.8203 5.4961 2.2812 0.70312 0.16406 1.2031 0.79297 1.2031 1.5195v2.1289h6.25v-2.1289c0-0.72656 0.5-1.3555 1.2031-1.5195 1.9453-0.46094 3.8008-1.2305 5.4961-2.2812 0.61719-0.38281 1.4141-0.28906 1.9258 0.22656l1.5078 1.5078 4.418-4.418-1.5039-1.5078v-0.003906c-0.51172-0.51172-0.60547-1.3086-0.22656-1.9258 1.0508-1.6992 1.8203-3.5547 2.2812-5.4961 0.16797-0.70312 0.79688-1.2031 1.5234-1.2031h2.125v-6.25h-2.125c-0.72656 0-1.3555-0.5-1.5234-1.2031-0.46094-1.9414-1.2305-3.7969-2.2812-5.4961-0.37891-0.61719-0.28516-1.4141 0.22656-1.9258l1.5039-1.5078-4.418-4.418-1.5078 1.5039c-0.51172 0.51172-1.3086 0.60547-1.9258 0.22656-1.6992-1.0508-3.5547-1.8203-5.4961-2.2812-0.70312-0.16797-1.2031-0.79688-1.2031-1.5234v-2.125h-6.25v2.125c0 0.72656-0.5 1.3555-1.2031 1.5234-1.9414 0.46094-3.7969 1.2305-5.4961 2.2812-0.61719 0.37891-1.4141 0.28516-1.9258-0.22656l-1.5078-1.5039-4.418 4.418 1.5039 1.5078c0.51172 0.51172 0.60547 1.3086 0.22656 1.9258-1.0508 1.6992-1.8203 3.5547-2.2812 5.4961-0.16797 0.70312-0.79688 1.2031-1.5234 1.2031h-2.125v6.25h2.125c0.72656 0 1.3555 0.5 1.5234 1.2031zm18.227-19.953c4.1445 0 8.1172 1.6445 11.047 4.5781 2.9336 2.9297 4.5781 6.9023 4.5781 11.047s-1.6445 8.1172-4.5781 11.047c-2.9297 2.9336-6.9023 4.5781-11.047 4.5781s-8.1172-1.6445-11.047-4.5781c-2.9336-2.9297-4.5781-6.9023-4.5781-11.047 0.003906-4.1445 1.6523-8.1133 4.582-11.043 2.9297-2.9297 6.8984-4.5781 11.043-4.582z"/>
  <path d="m53.125 23.438c0 4.168-6.25 4.168-6.25 0s6.25-4.168 6.25 0"/>
  <path d="m15.625 12.5c0 2.082-3.125 2.082-3.125 0s3.125-2.082 3.125 0"/>
  <path d="m19.449 20.516c-1.0195-2.0391-3.1055-3.3281-5.3867-3.3281s-4.3672 1.2891-5.3867 3.3281l-0.4375 0.87891c3.4062 2.7227 8.2422 2.7227 11.648 0z"/>
  <path d="m9.375 12.5c0-2.5898 2.0977-4.6875 4.6875-4.6875s4.6875 2.0977 4.6875 4.6875c-0.003906 0.875-0.25391 1.7344-0.72266 2.4766 1.7305 0.83203 3.1523 2.1953 4.0625 3.8906 1.7422-2.8945 1.7891-6.5039 0.125-9.4453-1.6641-2.9414-4.7812-4.7578-8.1602-4.7578-3.3789 0-6.4961 1.8164-8.1602 4.7578-1.6641 2.9414-1.6172 6.5508 0.125 9.4453 0.91406-1.6953 2.3398-3.0586 4.0781-3.8906-0.46875-0.74219-0.71875-1.6016-0.72266-2.4766z"/>
  <path d="m87.5 12.5c0 2.082-3.125 2.082-3.125 0s3.125-2.082 3.125 0"/>
  <path d="m85.938 4.6875c-3.375-0.007812-6.4961 1.8047-8.1602 4.7461-1.6641 2.9375-1.6172 6.543 0.125 9.4336 0.91016-1.6953 2.3359-3.0586 4.0703-3.8906-0.46875-0.74219-0.71875-1.6016-0.72266-2.4766 0-2.5898 2.0977-4.6875 4.6875-4.6875s4.6875 2.0977 4.6875 4.6875c-0.003906 0.875-0.25391 1.7344-0.72266 2.4766 1.7344 0.83203 3.1602 2.1953 4.0703 3.8906 1.7422-2.8906 1.7891-6.4961 0.125-9.4336-1.6641-2.9414-4.7852-4.7539-8.1602-4.7461z"/>
  <path d="m85.938 17.188c-2.2852-0.007812-4.3711 1.2852-5.3867 3.3281l-0.4375 0.87891c3.4062 2.7227 8.2422 2.7227 11.648 0l-0.4375-0.87891c-1.0156-2.043-3.1016-3.3359-5.3867-3.3281z"/>
 </g>
</svg>
