<?xml version="1.0" encoding="UTF-8"?>
<svg width="100pt" height="100pt" version="1.1" viewBox="0 0 100 100" xmlns="http://www.w3.org/2000/svg">
 <g>
  <path d="m70.312 26.562c0-0.9375-0.625-1.5625-1.5625-1.5625h-50c-0.9375 0-1.5625 0.625-1.5625 1.5625v23.438h53.125zm-17.188 15.312c0 2.8125-2.1875 5-5 5h-8.75c-2.8125 0-5-2.1875-5-5v-8.75c0-2.8125 2.1875-5 5-5h4.375v3.125h-4.375c-1.0938 0-1.875 0.78125-1.875 1.875v8.75c0 1.0938 0.78125 1.875 1.875 1.875h8.75c1.0938 0 1.875-0.78125 1.875-1.875v-2.8125h3.125zm-9.375-0.625-4.2188-4.2188 2.1875-2.1875 2.0312 2.0312 8.2812-8.2812 2.1875 2.1875z"/>
  <path d="m93.75 47.5-10.156-11.562h-10.156v14.062h20.312z"/>
  <path d="m35.156 60.938c-3.9062 0-7.0312 3.125-7.0312 7.0312s3.125 7.0312 7.0312 7.0312 7.0312-3.125 7.0312-7.0312-3.125-7.0312-7.0312-7.0312zm-1.25 10.469-2.1875-2.1875 4.6875-4.6875 2.1875 2.1875z"/>
  <path d="m75.781 60.938c-3.9062 0-7.0312 3.125-7.0312 7.0312s3.125 7.0312 7.0312 7.0312 7.0312-3.125 7.0312-7.0312-3.125-7.0312-7.0312-7.0312zm-1.25 10.469-2.1875-2.1875 4.6875-4.6875 2.1875 2.1875z"/>
  <path d="m93.75 53.125h-76.562v10.938c0 0.9375 0.625 1.5625 1.5625 1.5625h6.5625c1.25-5.4688 6.7188-8.9062 12.188-7.5 3.75 0.9375 6.7188 3.75 7.5 7.5h20.938c1.25-5.4688 6.7188-8.9062 12.188-7.5 3.75 0.9375 6.7188 3.75 7.5 7.5h6.5625c0.9375 0 1.5625-0.625 1.5625-1.5625z"/>
  <path d="m6.25 32.812h4.6875v3.125h-4.6875z"/>
  <path d="m4.6875 37.5h6.25v3.125h-6.25z"/>
  <path d="m3.125 42.188h7.8125v3.125h-7.8125z"/>
 </g>
</svg>
