<?xml version="1.0" encoding="UTF-8"?>
<svg width="100pt" height="100pt" version="1.1" viewBox="0 0 100 100" xmlns="http://www.w3.org/2000/svg">
 <path d="m36.359 13.438v-3.1953c0.83594-0.48828 1.4023-1.3906 1.4023-2.4297 0-1.5547-1.2617-2.8125-2.8164-2.8125-1.5547 0-2.8125 1.2578-2.8125 2.8125 0 1.043 0.57031 1.9492 1.4102 2.4375v3.1914c-5.8242 0-11.098 2.3633-14.914 6.1758-3.8125 3.8164-6.1758 9.0898-6.1758 14.914 0 5.4336 4.4102 9.8438 9.8438 9.8438h25.312c2.7188 0 5.1797-1.1055 6.9609-2.8828 1.7773-1.7812 2.8828-4.2422 2.8828-6.9609 0-11.648-9.4453-21.094-21.094-21.094zm-1.4062 28.125c-1.168 0-2.2227-0.47266-2.9844-1.2344s-1.2344-1.8164-1.2344-2.9844h8.4375c0 2.332-1.8906 4.2188-4.2188 4.2188zm14.062-10.547c0 1.9414-1.5742 3.5156-3.5156 3.5156h-21.094c-1.9414 0-3.5156-1.5742-3.5156-3.5156v-3.5156c0-1.9414 1.5742-3.5156 3.5156-3.5156h21.094c1.9414 0 3.5156 1.5742 3.5156 3.5156zm-19.504-1.6367c0 1.5156-1.2305 2.7461-2.7461 2.7461s-2.7461-1.2305-2.7461-2.7461 1.2305-2.7461 2.7461-2.7461 2.7461 1.2305 2.7461 2.7461zm16.375 0c0 1.5156-1.2305 2.7461-2.7461 2.7461s-2.7461-1.2305-2.7461-2.7461 1.2305-2.7461 2.7461-2.7461 2.7461 1.2305 2.7461 2.7461zm-7.0664 65.621h-7.7344c-0.97266 0-1.7578-0.78516-1.7578-1.7578 0-0.97266 0.78516-1.7578 1.7578-1.7578h7.7344c0.97266 0 1.7578 0.78516 1.7578 1.7578 0 0.97266-0.78906 1.7578-1.7578 1.7578zm-0.55859-31.953c0 1.8242-1.4805 3.3047-3.3047 3.3047s-3.3047-1.4805-3.3047-3.3047 1.4805-3.3047 3.3047-3.3047 3.3047 1.4766 3.3047 3.3047zm3.5977-15.859h-13.816c-7.2461 0-12.602 6.7461-10.957 13.805l4.0625 17.426c1.4961 6.4141 7.2148 10.957 13.805 10.957s12.309-4.5391 13.805-10.957l4.0625-17.426c1.6406-7.0547-3.7148-13.805-10.961-13.805zm-6.9023 21.977c-3.3711 0-6.1172-2.7422-6.1172-6.1172 0-3.3711 2.7422-6.1172 6.1172-6.1172 3.3711 0 6.1172 2.7422 6.1172 6.1172 0 3.3711-2.7461 6.1172-6.1172 6.1172zm-20.609-7.5352 2.4258 10.406v4.2422c-4.2266-2.2773-7.0977-6.7422-7.0977-11.883 0-4.2578 1.9766-8.0508 5.0586-10.523-0.84766 2.4688-0.99609 5.1406-0.38672 7.7578zm62.027-3.4727c-2.2773 4.2266-6.7422 7.0977-11.883 7.0977-3.4531 0-6.5938-1.3047-8.9805-3.4375l0.042969-0.1875c0.26953-1.1523 0.38672-2.3203 0.36328-3.4727zm12.238-20.465c1.7031-1.7031 2.1367-4.1992 1.293-6.3047l-3.9961 3.9961-3.2539-3.2539 3.9961-3.9961c-2.1055-0.84375-4.6016-0.41016-6.3047 1.293s-2.1367 4.1992-1.293 6.3047l-3.4883 3.4883-5.4883-5.4883 0.97266-0.97266 1.4922-2.668-2.1562-2.1562-2.8633 1.293-6.5664 6.5664 3.5312 3.5312 2.5391-2.5391 5.4883 5.4883-4.0625 4.0625c-1.5234-0.40234-3.2148-0.011719-4.4102 1.1836-1.7891 1.7891-1.7891 4.6914 0 6.4805 1.7891 1.7891 4.6914 1.7891 6.4805 0 1.1953-1.1953 1.5898-2.8867 1.1836-4.4102l4.0625-4.0625 8.8867 8.8867 3.0547-3.0547-8.8867-8.8867 3.4883-3.4883c2.1016 0.84375 4.5977 0.41406 6.3008-1.293zm-20.039 14.367c-0.71484 0.71484-1.875 0.71484-2.5938 0-0.71484-0.71484-0.71484-1.875 0-2.5938 0.71484-0.71484 1.875-0.71484 2.5938 0 0.71484 0.71875 0.71484 1.8789 0 2.5938z"/>
</svg>
